<svg width="44" height="44" viewBox="0 0 44 44" fill="none" xmlns="http://www.w3.org/2000/svg">
<path fill-rule="evenodd" clip-rule="evenodd" d="M12.7918 8.77386C10.4637 10.1707 9.25 11.9611 9.25 13.75C9.25 15.5389 10.4637 17.3293 12.7918 18.7261C15.0999 20.111 18.3531 21 22 21C25.6469 21 28.9001 20.111 31.2082 18.7261C33.5363 17.3293 34.75 15.5389 34.75 13.75C34.75 11.9611 33.5363 10.1707 31.2082 8.77386C28.9001 7.38898 25.6469 6.5 22 6.5C18.3531 6.5 15.0999 7.38898 12.7918 8.77386ZM11.7628 7.05888C14.4312 5.45784 18.053 4.5 22 4.5C25.947 4.5 29.5688 5.45784 32.2372 7.05888C34.8857 8.64796 36.75 10.9826 36.75 13.75C36.75 16.5174 34.8857 18.852 32.2372 20.4411C29.5688 22.0422 25.947 23 22 23C18.053 23 14.4312 22.0422 11.7628 20.4411C9.11431 18.852 7.25 16.5174 7.25 13.75C7.25 10.9826 9.11431 8.64796 11.7628 7.05888Z" fill="#86868B"/>
<path d="M30.25 13.75C30.25 16.0282 26.5563 17.875 22 17.875C17.4437 17.875 13.75 16.0282 13.75 13.75C13.75 11.4718 17.4437 9.625 22 9.625C26.5563 9.625 30.25 11.4718 30.25 13.75Z" fill="#FF6633"/>
<path fill-rule="evenodd" clip-rule="evenodd" d="M7.25 13.7501C7.25 13.75 7.25 13.75 8.25 13.75C9.25 13.75 9.25 13.75 9.25 13.7501V30.25C9.25 32.0389 10.4637 33.8293 12.7918 35.2261C15.0999 36.611 18.3531 37.5 22 37.5C25.6469 37.5 28.9001 36.611 31.2082 35.2261C33.5363 33.8293 34.75 32.0389 34.75 30.25V13.75H36.75V30.25C36.75 33.0174 34.8857 35.352 32.2372 36.9411C29.5688 38.5422 25.947 39.5 22 39.5C18.053 39.5 14.4312 38.5422 11.7628 36.9411C9.11431 35.352 7.25 33.0174 7.25 30.25V13.7501Z" fill="#86868B"/>
</svg>
