<svg width="44" height="44" viewBox="0 0 44 44" fill="none" xmlns="http://www.w3.org/2000/svg">
<path fill-rule="evenodd" clip-rule="evenodd" d="M5.20618 18.2945C5.73404 18.1321 6.29363 18.4283 6.45604 18.9562L8.42758 25.3637C8.81715 26.6298 9.80826 27.6209 11.0744 28.0104L24.3681 32.1008C25.4159 32.4232 26.5501 32.3015 27.5055 31.764L36.635 26.6287C37.1164 26.3579 37.7261 26.5286 37.9968 27.01C38.2676 27.4914 38.0969 28.1011 37.6155 28.3718L28.486 33.5072C27.0529 34.3133 25.3516 34.496 23.78 34.0124L10.4862 29.922C8.58704 29.3377 7.10038 27.851 6.51602 25.9518L4.54449 19.5444C4.38207 19.0165 4.67832 18.4569 5.20618 18.2945Z" fill="#86868B"/>
<path d="M39.1272 29.6697C36.6596 26.8446 26.5583 23.7 18.4055 22.0694C8.09303 20.0069 -2.21947 22.0694 2.59303 14.5069C7.2189 7.23768 35.0958 5.42873 40.5206 28.1672C40.9627 30.0201 39.6617 30.2816 39.1272 29.6697Z" fill="#FF6633"/>
<path fill-rule="evenodd" clip-rule="evenodd" d="M20.9622 9.38268C21.0961 9.91847 20.7704 10.4614 20.2346 10.5954C18.7854 10.9577 17.3733 12.015 16.113 13.582C14.8604 15.1394 13.8195 17.126 13.0965 19.1935C12.3729 21.2629 11.986 23.3614 12.0004 25.1288C12.0151 26.9389 12.4455 28.1972 13.119 28.8384C13.5191 29.2192 13.5346 29.8522 13.1538 30.2522C12.773 30.6522 12.1401 30.6678 11.7401 30.287C10.4778 29.0854 10.0167 27.1473 10.0005 25.1451C9.98383 23.1002 10.4264 20.7705 11.2086 18.5334C11.9914 16.2946 13.1327 14.0964 14.5546 12.3285C15.9688 10.5702 17.7236 9.16162 19.7495 8.6551C20.2853 8.52114 20.8282 8.84689 20.9622 9.38268ZM29.2279 12.1971C29.3261 12.7406 28.9652 13.2608 28.4217 13.3591C27.3157 13.559 26.039 14.2897 24.7672 15.4947C23.5084 16.6874 22.322 18.2822 21.3892 20.0805C19.5031 23.7166 18.7675 27.9427 20.2205 31.2197C20.4444 31.7245 20.2166 32.3153 19.7117 32.5392C19.2068 32.763 18.6161 32.5352 18.3922 32.0303C16.5923 27.9709 17.5871 23.067 19.6138 19.1596C20.6374 17.1862 21.953 15.4059 23.3917 14.0428C24.8174 12.6919 26.4337 11.686 28.066 11.3909C28.6095 11.2927 29.1297 11.6537 29.2279 12.1971Z" fill="#86868B"/>
</svg>
