<svg width="44" height="44" viewBox="0 0 44 44" fill="none" xmlns="http://www.w3.org/2000/svg">
<path fill-rule="evenodd" clip-rule="evenodd" d="M23.1802 5.62558C21.2209 6.77811 20.25 8.22565 20.25 9.625C20.25 11.0244 21.2209 12.4719 23.1802 13.6244C25.1164 14.7634 27.8567 15.5 30.9375 15.5C34.0183 15.5 36.7586 14.7634 38.6948 13.6244C40.6541 12.4719 41.625 11.0244 41.625 9.625C41.625 8.22565 40.6541 6.77811 38.6948 5.62558C36.7586 4.48664 34.0183 3.75 30.9375 3.75C27.8567 3.75 25.1164 4.48664 23.1802 5.62558ZM22.1662 3.90171C24.46 2.55238 27.5634 1.75 30.9375 1.75C34.3116 1.75 37.415 2.55238 39.7088 3.90171C41.9796 5.23744 43.625 7.22739 43.625 9.625C43.625 12.0226 41.9796 14.0126 39.7088 15.3483C37.415 16.6976 34.3116 17.5 30.9375 17.5C27.5634 17.5 24.46 16.6976 22.1662 15.3483C19.8954 14.0126 18.25 12.0226 18.25 9.625C18.25 7.22739 19.8954 5.23744 22.1662 3.90171Z" fill="#86868B"/>
<path d="M37.125 9.625C37.125 11.1438 34.3548 12.375 30.9375 12.375C27.5202 12.375 24.75 11.1438 24.75 9.625C24.75 8.10622 27.5202 6.875 30.9375 6.875C34.3548 6.875 37.125 8.10622 37.125 9.625Z" fill="#FF6633"/>
<path fill-rule="evenodd" clip-rule="evenodd" d="M18.25 9.62511C18.25 9.62504 18.25 9.625 19.25 9.625C20.25 9.625 20.25 9.62504 20.25 9.62511V23.375C20.25 24.7744 21.2209 26.2219 23.1802 27.3744C25.1164 28.5134 27.8567 29.25 30.9375 29.25C34.0183 29.25 36.7586 28.5134 38.6948 27.3744C40.6541 26.2219 41.625 24.7744 41.625 23.375V9.625H43.625V23.375C43.625 25.7726 41.9796 27.7626 39.7088 29.0983C37.415 30.4476 34.3116 31.25 30.9375 31.25C27.5634 31.25 24.46 30.4476 22.1662 29.0983C19.8954 27.7626 18.25 25.7726 18.25 23.375V9.62511Z" fill="#86868B"/>
<path fill-rule="evenodd" clip-rule="evenodd" d="M3.83118 26.5445C4.35904 26.3821 4.91863 26.6783 5.08104 27.2062L7.05258 33.6137C7.44215 34.8798 8.43326 35.8709 9.69935 36.2604L22.9931 40.3508C24.0409 40.6732 25.1751 40.5515 26.1305 40.014L35.26 34.8787C35.7414 34.6079 36.3511 34.7786 36.6218 35.26C36.8926 35.7414 36.7219 36.3511 36.2405 36.6218L27.111 41.7572C25.6779 42.5633 23.9766 42.746 22.405 42.2624L9.11118 38.172C7.21204 37.5877 5.72538 36.101 5.14102 34.2018L3.16949 27.7944C3.00707 27.2665 3.30332 26.7069 3.83118 26.5445Z" fill="#86868B"/>
<path d="M37.7522 37.9197C35.2846 35.0946 25.1833 31.95 17.0305 30.3194C6.71803 28.2569 -3.59447 30.3194 1.21803 22.7569C5.8439 15.4877 33.7208 13.6787 39.1456 36.4172C39.5877 38.2701 38.2867 38.5316 37.7522 37.9197Z" fill="#FF6633"/>
<path fill-rule="evenodd" clip-rule="evenodd" d="M19.5872 17.6327C19.7211 18.1685 19.3954 18.7114 18.8596 18.8454C17.4104 19.2077 15.9983 20.265 14.738 21.832C13.4854 23.3894 12.4445 25.376 11.7215 27.4435C10.9979 29.5129 10.611 31.6114 10.6254 33.3788C10.6401 35.1889 11.0705 36.4472 11.744 37.0884C12.1441 37.4692 12.1596 38.1022 11.7788 38.5022C11.398 38.9022 10.7651 38.9178 10.3651 38.537C9.10275 37.3354 8.64172 35.3973 8.62545 33.3951C8.60883 31.3502 9.05136 29.0205 9.8336 26.7834C10.6164 24.5446 11.7577 22.3464 13.1796 20.5785C14.5938 18.8202 16.3486 17.4116 18.3745 16.9051C18.9103 16.7711 19.4532 17.0969 19.5872 17.6327ZM27.8529 20.4471C27.9511 20.9906 27.5902 21.5108 27.0467 21.6091C25.9407 21.809 24.664 22.5397 23.3922 23.7447C22.1334 24.9374 20.947 26.5322 20.0142 28.3305C18.1281 31.9666 17.3925 36.1927 18.8455 39.4697C19.0694 39.9745 18.8416 40.5653 18.3367 40.7892C17.8318 41.013 17.2411 40.7852 17.0172 40.2803C15.2173 36.2209 16.2121 31.317 18.2388 27.4096C19.2624 25.4362 20.578 23.6559 22.0167 22.2928C23.4424 20.9419 25.0587 19.936 26.691 19.6409C27.2345 19.5427 27.7547 19.9037 27.8529 20.4471Z" fill="#86868B"/>
</svg>
