<svg width="44" height="44" viewBox="0 0 44 44" fill="none" xmlns="http://www.w3.org/2000/svg">
<path d="M16.5 15.8125C16.5 13.1546 14.3454 11 11.6875 11C9.02963 11 6.875 13.1546 6.875 15.8125" fill="#FF6633"/>
<path d="M37.125 15.8125C37.125 13.1546 34.9704 11 32.3125 11C29.6546 11 27.5 13.1546 27.5 15.8125" fill="#FF6633"/>
<path fill-rule="evenodd" clip-rule="evenodd" d="M12.7598 16.5595C13.3991 12.0736 17.2544 8.625 21.9168 8.625C26.476 8.625 30.2631 11.9225 31.0266 16.2626L29.0568 16.6091C28.4586 13.2087 25.4884 10.625 21.9168 10.625C18.264 10.625 15.2406 13.3274 14.7398 16.8417L12.7598 16.5595Z" fill="#86868B"/>
<path fill-rule="evenodd" clip-rule="evenodd" d="M32.5479 16.3483C33.6178 15.8055 34.8279 15.5 36.1065 15.5C40.4558 15.5 43.9815 19.0258 43.9815 23.375C43.9815 25.1284 43.4073 26.7505 42.437 28.0598L40.8302 26.869C41.5539 25.8925 41.9815 24.6851 41.9815 23.375C41.9815 20.1303 39.3512 17.5 36.1065 17.5C35.1495 17.5 34.2487 17.7281 33.4527 18.1319L32.5479 16.3483Z" fill="#86868B"/>
<path fill-rule="evenodd" clip-rule="evenodd" d="M0.375 23.375C0.375 19.0258 3.90076 15.5 8.25 15.5C9.65939 15.5 10.9851 15.8711 12.1316 16.5217L11.1446 18.2612C10.2911 17.7769 9.30439 17.5 8.25 17.5C5.00533 17.5 2.375 20.1303 2.375 23.375C2.375 24.7224 2.82738 25.9613 3.58909 26.9521L2.00352 28.1711C0.982512 26.8431 0.375 25.1786 0.375 23.375Z" fill="#86868B"/>
<path fill-rule="evenodd" clip-rule="evenodd" d="M0.375 34.1844C0.375 23.1059 9.3559 14.125 20.4344 14.125H23.5656C34.6441 14.125 43.625 23.1059 43.625 34.1844C43.625 34.842 43.092 35.375 42.4344 35.375H1.56559C0.908038 35.375 0.375 34.8419 0.375 34.1844ZM2.39281 33.375H41.6072C41.1838 23.7767 33.2683 16.125 23.5656 16.125H20.4344C10.7317 16.125 2.81616 23.7767 2.39281 33.375Z" fill="#86868B"/>
<path d="M19.25 22C19.25 22.7594 18.6344 23.375 17.875 23.375C17.1156 23.375 16.5 22.7594 16.5 22C16.5 21.2406 17.1156 20.625 17.875 20.625C18.6344 20.625 19.25 21.2406 19.25 22Z" fill="#FF6633"/>
<path d="M24.75 27.5C24.75 28.2594 24.1344 28.875 23.375 28.875C22.6156 28.875 22 28.2594 22 27.5C22 26.7406 22.6156 26.125 23.375 26.125C24.1344 26.125 24.75 26.7406 24.75 27.5Z" fill="#FF6633"/>
<path d="M34.375 26.125C34.375 26.8844 33.7594 27.5 33 27.5C32.2406 27.5 31.625 26.8844 31.625 26.125C31.625 25.3656 32.2406 24.75 33 24.75C33.7594 24.75 34.375 25.3656 34.375 26.125Z" fill="#FF6633"/>
<path d="M11 28.875C11 29.6344 10.3844 30.25 9.625 30.25C8.86561 30.25 8.25 29.6344 8.25 28.875C8.25 28.1156 8.86561 27.5 9.625 27.5C10.3844 27.5 11 28.1156 11 28.875Z" fill="#FF6633"/>
</svg>
