<svg width="44" height="44" viewBox="0 0 44 44" fill="none" xmlns="http://www.w3.org/2000/svg">
<path d="M18.9 7.95703V9.69143C18.9 10.2251 17.4547 11.2035 15.0532 11.2035C12.6518 11.2035 11.2064 10.2251 11.2064 9.69143V7.95703C12.2293 8.46846 13.5412 8.77976 15.0532 8.77976C16.5653 8.802 17.8994 8.49069 18.9 7.95703Z" fill="#FF6633"/>
<path d="M23.6318 12.1816H21.6306V19.5862H23.6318V12.1816Z" fill="#86868B"/>
<path d="M15.0724 37.0394C10.2694 37.0394 6.48932 34.8603 6.48932 32.1031V12.1797H8.49055V32.1031C8.49055 33.4817 11.2923 35.0382 15.0724 35.0382V37.0394Z" fill="#86868B"/>
<path d="M15.0724 17.1182C10.2472 17.1182 6.48932 14.9613 6.48932 12.1819C6.48932 10.6031 7.71229 9.15777 9.8247 8.24609L10.6252 10.0917C9.29104 10.6698 8.49055 11.4481 8.49055 12.2041C8.49055 13.5827 11.2923 15.1392 15.0724 15.1392C18.8525 15.1392 21.6542 13.5827 21.6542 12.2041C21.6542 11.4703 20.8537 10.6698 19.5196 10.0917L20.3201 8.24609C22.4325 9.15777 23.6554 10.6031 23.6554 12.1819C23.6332 14.9613 19.8753 17.1182 15.0724 17.1182Z" fill="#86868B"/>
<path d="M20.9002 5.28711V9.71205C20.9002 9.88994 20.878 10.0678 20.8335 10.2457C20.4333 11.9801 18.0763 13.2031 15.0744 13.2031C12.2949 13.2031 10.0936 12.158 9.4265 10.646C9.29309 10.3347 9.22638 10.0234 9.22638 9.68982V5.28711H11.2276V9.71205C11.2276 10.2457 12.6952 11.2241 15.0744 11.2241C17.4537 11.2241 18.9212 10.2457 18.9212 9.71205V5.28711H20.9002Z" fill="#86868B"/>
<path d="M20.3861 3.79886C19.4966 2.57588 17.4954 1.77539 15.0495 1.77539C12.937 1.77539 11.1582 2.37576 10.1353 3.3319C9.53495 3.8878 9.20142 4.55488 9.20142 5.28866C9.20142 6.40046 9.95744 7.33437 11.2026 7.97921C12.2255 8.49063 13.5374 8.80194 15.0495 8.80194C16.5393 8.80194 17.8734 8.49063 18.8963 7.97921C20.1415 7.3566 20.8975 6.40046 20.8975 5.28866C20.8975 4.73277 20.7196 4.24358 20.3861 3.79886ZM15.0717 6.80071C12.6925 6.80071 11.2249 5.82233 11.2249 5.28866C11.2249 4.755 12.6925 3.77662 15.0717 3.77662C17.4509 3.77662 18.9185 4.755 18.9185 5.28866C18.8963 5.82233 17.4509 6.80071 15.0717 6.80071Z" fill="#86868B"/>
<path d="M18.9 5.28939C18.9 5.82305 17.4547 6.80143 15.0532 6.80143C12.6518 6.80143 11.2064 5.82305 11.2064 5.28939C11.2064 4.75572 12.674 3.77734 15.0532 3.77734C17.4325 3.77734 18.9 4.75572 18.9 5.28939Z" fill="#FF6633"/>
<path d="M24.7029 18.5859C16.9648 18.5859 10.8944 21.9436 10.8944 26.2351C10.8944 30.5266 16.9648 33.8842 24.7029 33.8842C32.441 33.8842 38.5114 30.5266 38.5114 26.2351C38.5114 21.9436 32.4632 18.5859 24.7029 18.5859ZM35.2872 28.7033C33.3304 30.5711 29.2835 31.883 24.7029 31.883C20.1223 31.883 16.0754 30.5711 14.1186 28.681C13.3404 27.9473 12.8956 27.1023 12.8956 26.2351C12.8956 23.1888 18.299 20.5872 24.7029 20.5872C31.0846 20.5872 36.5102 23.1665 36.5102 26.2351C36.5102 27.1023 36.0655 27.9473 35.2872 28.7033Z" fill="#86868B"/>
<path d="M24.6974 42.0022C19.1162 42.0022 15.3139 39.9342 14.2243 36.3542L12.0674 29.2832L13.9797 28.7051L16.1366 35.7761C16.9371 38.4666 20.0501 40.0009 24.6752 40.0009V42.0022H24.6974Z" fill="#86868B"/>
<path d="M24.7047 42.0009V39.9997C29.3297 39.9997 32.4427 38.4654 33.2432 35.7749L35.4001 28.6816L37.3124 29.2598L35.1555 36.3308C34.0882 39.933 30.2859 42.0009 24.7047 42.0009Z" fill="#86868B"/>
<path d="M35.2868 28.7038C33.33 30.5716 29.2831 31.8835 24.7025 31.8835C20.1219 31.8835 16.075 30.5716 14.1182 28.6815C15.5413 26.7915 19.4993 25.1016 24.7025 25.1016C29.928 25.1238 33.8859 26.7915 35.2868 28.7038Z" fill="#FF6633"/>
</svg>
