<svg width="44" height="44" viewBox="0 0 44 44" fill="none" xmlns="http://www.w3.org/2000/svg">
<path d="M31.625 22.375C31.625 20.8562 30.3938 19.625 28.875 19.625C27.3562 19.625 26.125 20.8562 26.125 22.375C26.125 22.375 26.125 25.142 28.875 25.142C31.625 25.142 31.625 22.375 31.625 22.375Z" fill="#FF6633"/>
<path d="M16.5 23.375C16.5 22.6156 15.8844 22 15.125 22C14.3656 22 13.75 22.6156 13.75 23.375C13.75 23.375 13.75 24.75 15.125 24.75C16.5 24.75 16.5 23.375 16.5 23.375Z" fill="#FF6633"/>
<path fill-rule="evenodd" clip-rule="evenodd" d="M3.125 24.75C3.125 24.1977 3.57272 23.75 4.125 23.75H39.875C40.4273 23.75 40.875 24.1977 40.875 24.75V29.5C40.875 35.0228 36.3978 39.5 30.875 39.5H13.125C7.60215 39.5 3.125 35.0228 3.125 29.5V24.75ZM5.125 25.75V29.5C5.125 33.9183 8.70672 37.5 13.125 37.5H30.875C35.2933 37.5 38.875 33.9183 38.875 29.5V25.75H5.125Z" fill="#86868B"/>
<path d="M21.9607 15.546C21.1802 16.2425 20.0953 17.2104 18.0596 17.5921C16.082 17.9629 15.0738 17.7818 14.2798 17.5759C14.2224 17.5611 14.17 17.5473 14.1216 17.5346L14.1212 17.5345C13.8473 17.4625 13.7033 17.4247 13.5271 17.4133C13.3538 17.4021 13.1109 17.4182 12.6915 17.5579C12.202 17.7211 11.9667 18.0876 11.8123 18.9366C11.7615 19.2159 11.7311 19.4721 11.6976 19.7538L11.6976 19.7538C11.6766 19.9301 11.6545 20.1164 11.6255 20.3246C11.5594 20.7978 11.4575 21.3684 11.2072 21.869C10.9396 22.4043 10.7848 23.13 10.7035 23.7802C10.6642 24.0943 10.6446 24.3697 10.6348 24.5655C10.6299 24.663 10.6275 24.7398 10.6264 24.7907C10.6258 24.8161 10.6255 24.835 10.6254 24.8466L10.6253 24.8586C10.6251 25.4108 9.27066 25.0932 8.71848 25.0932C8.66175 25.0932 8.6157 25.0966 8.57872 25.102C8.33075 25.1384 8.49088 25.2679 8.57872 25.102C8.60532 25.0518 8.62529 24.9745 8.62529 24.8593L8.62529 24.8551L8.62532 24.848L8.62551 24.8249C8.62572 24.8057 8.62612 24.7789 8.62689 24.7452C8.62842 24.678 8.63141 24.5829 8.63728 24.4656C8.64897 24.2316 8.67227 23.9055 8.71895 23.5321C8.80955 22.8073 8.99851 21.8143 9.41836 20.9746C9.5118 20.7877 9.58177 20.4989 9.64465 20.0482C9.66222 19.9223 9.68019 19.7734 9.69958 19.6128L9.69958 19.6128C9.73915 19.285 9.7846 18.9085 9.84454 18.5788C10.0339 17.5372 10.4861 16.1849 12.0591 15.6606C12.6709 15.4566 13.1751 15.3863 13.6565 15.4175C14.0424 15.4425 14.3928 15.5362 14.6606 15.6079C14.7031 15.6192 14.7436 15.6301 14.7817 15.64C15.3101 15.7769 16.0207 15.9396 17.691 15.6264C19.1767 15.3478 19.9132 14.6916 20.6482 14.0367L20.72 13.9728C21.092 13.6419 21.5618 13.2254 22.1537 12.9793C22.7995 12.7109 23.5056 12.6724 24.3241 12.894C25.1083 13.1063 25.693 13.4497 26.1378 13.8923C26.5713 14.3237 26.8218 14.8017 27.0011 15.1811C27.035 15.2529 27.0665 15.32 27.0959 15.3828C27.4135 16.0594 27.4949 16.233 27.8366 16.355C27.9974 16.4125 28.1705 16.4155 28.4452 16.3325C28.6823 16.2609 28.9066 16.157 29.2064 16.0182L29.2065 16.0182C29.3148 15.968 29.433 15.9133 29.5653 15.8538C30.5011 15.4333 31.7959 14.9634 33.4141 15.6989C34.2491 16.0785 34.7774 16.6616 35.0457 17.3767C35.2942 18.0394 35.2869 18.734 35.2456 19.2948C35.2281 19.533 35.2016 19.7748 35.1776 19.9938L35.1638 20.1205C35.1356 20.3819 35.1136 20.609 35.1064 20.8184C35.0913 21.2567 35.1501 21.4641 35.2189 21.5724C35.8582 22.5769 35.8668 23.5502 35.7008 24.2634C35.6198 24.6112 35.4989 24.8944 35.3968 25.0932C35.3454 25.1934 35.2976 25.2745 35.2599 25.3344C35.241 25.3644 35.2245 25.3893 35.2112 25.4087L35.1937 25.4339L35.1869 25.4435L35.184 25.4475L35.182 25.4502C35.182 25.4502 35.1814 25.451 34.4123 24.8864L35.1814 25.451C34.4123 25.3344 34.6103 25.7355 34.165 25.4087C33.7236 25.0847 33.244 24.7233 33.5609 24.2789L33.5675 24.2686C33.5774 24.2529 33.5955 24.2228 33.6174 24.1802C33.6618 24.0936 33.7166 23.9654 33.7528 23.8099C33.8212 23.5163 33.8297 23.1146 33.5316 22.6461C33.1318 22.0179 33.0884 21.3078 33.1076 20.7495C33.1176 20.4605 33.1469 20.1696 33.1754 19.9059L33.1906 19.7656C33.2145 19.5471 33.2364 19.3474 33.251 19.1481C33.2872 18.6562 33.2639 18.3212 33.1731 18.0791C33.1019 17.8894 32.9675 17.6928 32.5865 17.5196C31.7725 17.1496 31.1667 17.3268 30.3852 17.6781C30.3098 17.7119 30.2277 17.7501 30.1406 17.7906C29.811 17.9438 29.409 18.1307 29.0234 18.2471C28.4875 18.4089 27.8525 18.4844 27.1639 18.2385C25.9825 17.8165 25.5472 16.8328 25.2827 16.2349L25.2826 16.2347C25.2505 16.162 25.2209 16.0951 25.1927 16.0355C25.0424 15.7174 24.9107 15.4927 24.727 15.3099C24.5546 15.1383 24.2871 14.956 23.8015 14.8245C23.3501 14.7023 23.104 14.7503 22.9214 14.8261C22.6851 14.9244 22.4507 15.1101 22.0492 15.4672L21.9607 15.546Z" fill="#86868B"/>
<path d="M24.75 16.5C24.75 18.7782 22.9032 20.625 20.625 20.625C18.3468 20.625 16.5 18.7782 16.5 16.5C16.5 14.2218 18.3468 12.375 20.625 12.375C22.9032 12.375 24.75 14.2218 24.75 16.5Z" fill="#FF6633"/>
<path fill-rule="evenodd" clip-rule="evenodd" d="M2.30301 10.1058C2.79698 9.8588 3.39766 10.059 3.64465 10.553L10.5196 24.303C10.7666 24.797 10.5664 25.3977 10.0724 25.6446C9.57845 25.8916 8.97778 25.6914 8.73079 25.1974L1.85579 11.4474C1.6088 10.9535 1.80903 10.3528 2.30301 10.1058Z" fill="#86868B"/>
<path fill-rule="evenodd" clip-rule="evenodd" d="M41.6974 10.1058C42.1914 10.3528 42.3916 10.9535 42.1446 11.4474L35.2696 25.1974C35.0227 25.6914 34.422 25.8916 33.928 25.6446C33.434 25.3977 33.2338 24.797 33.4808 24.303L40.3558 10.553C40.6028 10.059 41.2035 9.8588 41.6974 10.1058Z" fill="#86868B"/>
</svg>
